<svg xmlns="http://www.w3.org/2000/svg" width="112.594" height="23.656" viewBox="0 0 112.594 23.656">
  <metadata><?xpacket begin="﻿" id="W5M0MpCehiHzreSzNTczkc9d"?>
<x:xmpmeta xmlns:x="adobe:ns:meta/" x:xmptk="Adobe XMP Core 5.6-c138 79.159824, 2016/09/14-01:09:01        ">
   <rdf:RDF xmlns:rdf="http://www.w3.org/1999/02/22-rdf-syntax-ns#">
      <rdf:Description rdf:about=""/>
   </rdf:RDF>
</x:xmpmeta>
                                                                                                    
                                                                                                    
                                                                                                    
                                                                                                    
                                                                                                    
                                                                                                    
                                                                                                    
                                                                                                    
                                                                                                    
                                                                                                    
                                                                                                    
                                                                                                    
                                                                                                    
                                                                                                    
                                                                                                    
                                                                                                    
                                                                                                    
                                                                                                    
                                                                                                    
                                                                                                    
                           
<?xpacket end="w"?></metadata>
<defs>
    <style>
      .cls-1 {
        fill: #1d1d1d;
        fill-rule: evenodd;
      }
    </style>
  </defs>
  <path id="jarvis." class="cls-1" d="M226.865,31.243h-4.332V46.266a8.928,8.928,0,0,1-.241,2.234,3.886,3.886,0,0,1-.717,1.5,2.752,2.752,0,0,1-1.184.841,5.343,5.343,0,0,1-2.746.152,3.08,3.08,0,0,0-.716-0.112,0.977,0.977,0,0,0-.685.216,0.847,0.847,0,0,0-.265.569l-0.226,2.563a15.592,15.592,0,0,0,1.756.328,13.858,13.858,0,0,0,1.707.1,8.676,8.676,0,0,0,3.333-.593,6.288,6.288,0,0,0,2.392-1.7,7.312,7.312,0,0,0,1.441-2.675,11.957,11.957,0,0,0,.483-3.523V31.243Zm14.968,0H237.4L228.256,54.4h3.366a1.429,1.429,0,0,0,.926-0.3,1.517,1.517,0,0,0,.508-0.672L234.8,48.7h9.647l1.739,4.725a1.592,1.592,0,0,0,.523.7,1.468,1.468,0,0,0,.926.281h3.35Zm-3.092,6.743q0.208-.528.426-1.234t0.443-1.521q0.225,0.817.459,1.513t0.427,1.21l2.834,7.7h-7.424Zm21.132,7.367a2.135,2.135,0,0,1,.975.176,1.719,1.719,0,0,1,.6.593l4.9,7.416a1.954,1.954,0,0,0,.668.64,1.905,1.905,0,0,0,.958.224h3.9l-5.83-8.552a4.28,4.28,0,0,0-1.417-1.33,8.429,8.429,0,0,0,2.182-1.025,6.719,6.719,0,0,0,1.611-1.489,6.386,6.386,0,0,0,1-1.89,7.325,7.325,0,0,0-.161-4.908A5.281,5.281,0,0,0,267.66,33.1a7.812,7.812,0,0,0-2.786-1.369,14.923,14.923,0,0,0-4.083-.488h-7.1V54.4h4.332V45.353h1.852Zm-1.852-10.779h2.77a5.611,5.611,0,0,1,3.568.945,3.28,3.28,0,0,1,1.167,2.706,4.385,4.385,0,0,1-.29,1.618,3.376,3.376,0,0,1-.877,1.273,4.126,4.126,0,0,1-1.5.841,6.735,6.735,0,0,1-2.134.3h-2.706V34.574ZM281.693,54.4h3.913l9.405-23.159h-3.494a1.4,1.4,0,0,0-.918.3,1.675,1.675,0,0,0-.516.672l-5.459,14.126a19.815,19.815,0,0,0-.918,3.251q-0.226-.913-0.475-1.737t-0.524-1.514L277.232,32.22a1.673,1.673,0,0,0-.532-0.7,1.465,1.465,0,0,0-.918-0.272h-3.494Zm20.794-23.159h-4.348V54.4h4.348V31.243Zm18.679,2.178a8.6,8.6,0,0,0-2.963-1.794,10.931,10.931,0,0,0-3.8-.641,8.742,8.742,0,0,0-3.237.561,7.308,7.308,0,0,0-2.391,1.489,6.354,6.354,0,0,0-1.989,4.6,6.833,6.833,0,0,0,.459,2.667,5.313,5.313,0,0,0,1.216,1.8,6.36,6.36,0,0,0,1.723,1.169,16.88,16.88,0,0,0,1.965.769q1,0.32,1.964.592a9.169,9.169,0,0,1,1.723.665,3.7,3.7,0,0,1,1.216.969,2.319,2.319,0,0,1,.459,1.49,3.127,3.127,0,0,1-1.014,2.506,4.264,4.264,0,0,1-2.867.873,5.807,5.807,0,0,1-2.069-.328,8.385,8.385,0,0,1-1.5-.729q-0.636-.4-1.1-0.728a1.547,1.547,0,0,0-.87-0.328,1.041,1.041,0,0,0-.555.152,1.6,1.6,0,0,0-.427.376l-1.256,2.066a9.068,9.068,0,0,0,1.538,1.249,10.741,10.741,0,0,0,1.852.961,11.548,11.548,0,0,0,2.069.616,11.087,11.087,0,0,0,2.19.216,9.382,9.382,0,0,0,3.431-.585,7.428,7.428,0,0,0,2.536-1.6,6.767,6.767,0,0,0,1.578-2.386,7.934,7.934,0,0,0,.54-2.939,5.894,5.894,0,0,0-.459-2.45,5.237,5.237,0,0,0-1.216-1.706,6.834,6.834,0,0,0-1.723-1.153,18.9,18.9,0,0,0-1.973-.8q-1.007-.344-1.973-0.649a11.361,11.361,0,0,1-1.723-.689,3.826,3.826,0,0,1-1.216-.929,2.039,2.039,0,0,1-.459-1.361,3,3,0,0,1,.226-1.177,2.4,2.4,0,0,1,.684-0.921,3.332,3.332,0,0,1,1.127-.6,5.135,5.135,0,0,1,1.571-.217,5.42,5.42,0,0,1,1.731.249,7.87,7.87,0,0,1,1.28.553q0.548,0.3.95,0.553a1.416,1.416,0,0,0,.725.248,1.041,1.041,0,0,0,.556-0.144,1.2,1.2,0,0,0,.41-0.5Zm2.49,19.756a2.27,2.27,0,0,0,.516.761,2.406,2.406,0,0,0,.781.5,2.523,2.523,0,0,0,.966.184,2.487,2.487,0,0,0,.95-0.184,2.319,2.319,0,0,0,.773-0.5,2.425,2.425,0,0,0,.515-0.761,2.418,2.418,0,0,0,0-1.9,2.4,2.4,0,0,0-.515-0.769A2.442,2.442,0,0,0,326.869,50a2.4,2.4,0,0,0-.95-0.192,2.435,2.435,0,0,0-.966.192,2.538,2.538,0,0,0-.781.513,2.252,2.252,0,0,0-.516.769A2.527,2.527,0,0,0,323.656,53.177Z" transform="translate(-215.75 -31)"/>
</svg>
