<svg xmlns="http://www.w3.org/2000/svg" width="112.594" height="23.656" viewBox="0 0 112.594 23.656">
  <metadata><?xpacket begin="﻿" id="W5M0MpCehiHzreSzNTczkc9d"?>
<x:xmpmeta xmlns:x="adobe:ns:meta/" x:xmptk="Adobe XMP Core 5.6-c138 79.159824, 2016/09/14-01:09:01        ">
   <rdf:RDF xmlns:rdf="http://www.w3.org/1999/02/22-rdf-syntax-ns#">
      <rdf:Description rdf:about=""/>
   </rdf:RDF>
</x:xmpmeta>
                                                                                                    
                                                                                                    
                                                                                                    
                                                                                                    
                                                                                                    
                                                                                                    
                                                                                                    
                                                                                                    
                                                                                                    
                                                                                                    
                                                                                                    
                                                                                                    
                                                                                                    
                                                                                                    
                                                                                                    
                                                                                                    
                                                                                                    
                                                                                                    
                                                                                                    
                                                                                                    
                           
<?xpacket end="w"?></metadata>
<defs>
    <style>
      .cls-1 {
        fill: #fff;
        fill-rule: evenodd;
      }
    </style>
  </defs>
  <path id="jarvis." class="cls-1" d="M226.865,30.244h-4.332V45.267a8.926,8.926,0,0,1-.241,2.234,3.887,3.887,0,0,1-.717,1.5,2.753,2.753,0,0,1-1.184.841,5.333,5.333,0,0,1-2.746.152,3.084,3.084,0,0,0-.716-0.112,0.977,0.977,0,0,0-.685.216,0.847,0.847,0,0,0-.265.569l-0.226,2.563a15.462,15.462,0,0,0,1.756.328,13.838,13.838,0,0,0,1.707.1,8.678,8.678,0,0,0,3.333-.593,6.289,6.289,0,0,0,2.392-1.7,7.311,7.311,0,0,0,1.441-2.675,11.956,11.956,0,0,0,.483-3.523V30.244Zm14.968,0H237.4L228.256,53.4h3.366a1.428,1.428,0,0,0,.926-0.3,1.52,1.52,0,0,0,.508-0.672L234.8,47.7h9.647l1.739,4.725a1.592,1.592,0,0,0,.523.7,1.468,1.468,0,0,0,.926.28h3.35Zm-3.092,6.743q0.208-.529.426-1.234t0.443-1.521q0.225,0.817.459,1.513t0.427,1.209l2.834,7.7h-7.424Zm21.132,7.367a2.132,2.132,0,0,1,.975.176,1.718,1.718,0,0,1,.6.593l4.9,7.416a1.952,1.952,0,0,0,.668.64,1.908,1.908,0,0,0,.958.224h3.9l-5.83-8.552a4.279,4.279,0,0,0-1.417-1.33,8.44,8.44,0,0,0,2.182-1.025,6.711,6.711,0,0,0,1.611-1.489,6.38,6.38,0,0,0,1-1.89,7.326,7.326,0,0,0-.161-4.909A5.283,5.283,0,0,0,267.66,32.1a7.813,7.813,0,0,0-2.786-1.369,14.923,14.923,0,0,0-4.083-.488h-7.1V53.4h4.332V44.354h1.852Zm-1.852-10.779h2.77a5.614,5.614,0,0,1,3.568.945,3.282,3.282,0,0,1,1.167,2.707,4.385,4.385,0,0,1-.29,1.618,3.379,3.379,0,0,1-.877,1.273,4.129,4.129,0,0,1-1.5.841,6.732,6.732,0,0,1-2.134.3h-2.706V33.576ZM281.693,53.4h3.913l9.405-23.159h-3.494a1.4,1.4,0,0,0-.918.3,1.675,1.675,0,0,0-.516.673l-5.459,14.126a19.816,19.816,0,0,0-.918,3.251q-0.226-.913-0.475-1.738t-0.524-1.514l-5.475-14.126a1.669,1.669,0,0,0-.532-0.7,1.464,1.464,0,0,0-.918-0.272h-3.494Zm20.794-23.159h-4.348V53.4h4.348V30.244Zm18.679,2.178a8.6,8.6,0,0,0-2.963-1.794,10.933,10.933,0,0,0-3.8-.641,8.75,8.75,0,0,0-3.237.561,7.313,7.313,0,0,0-2.391,1.489,6.354,6.354,0,0,0-1.989,4.6,6.834,6.834,0,0,0,.459,2.667,5.317,5.317,0,0,0,1.216,1.8,6.363,6.363,0,0,0,1.723,1.169,16.9,16.9,0,0,0,1.965.769q1,0.32,1.964.592a9.155,9.155,0,0,1,1.723.665,3.7,3.7,0,0,1,1.216.969,2.319,2.319,0,0,1,.459,1.49,3.127,3.127,0,0,1-1.014,2.506,4.263,4.263,0,0,1-2.867.873,5.813,5.813,0,0,1-2.069-.328,8.433,8.433,0,0,1-1.5-.729q-0.636-.4-1.1-0.728a1.547,1.547,0,0,0-.87-0.328,1.04,1.04,0,0,0-.555.152,1.588,1.588,0,0,0-.427.376l-1.256,2.066a9.084,9.084,0,0,0,1.538,1.249,10.755,10.755,0,0,0,1.852.961,11.531,11.531,0,0,0,2.069.616,11.087,11.087,0,0,0,2.19.217,9.388,9.388,0,0,0,3.431-.585,7.433,7.433,0,0,0,2.536-1.6,6.774,6.774,0,0,0,1.578-2.386,7.936,7.936,0,0,0,.54-2.939,5.893,5.893,0,0,0-.459-2.45,5.236,5.236,0,0,0-1.216-1.706,6.847,6.847,0,0,0-1.723-1.153,18.969,18.969,0,0,0-1.973-.8q-1.007-.344-1.973-0.649a11.319,11.319,0,0,1-1.723-.689,3.826,3.826,0,0,1-1.216-.929,2.039,2.039,0,0,1-.459-1.361,3,3,0,0,1,.226-1.177,2.4,2.4,0,0,1,.684-0.921,3.334,3.334,0,0,1,1.127-.6,5.13,5.13,0,0,1,1.571-.216,5.417,5.417,0,0,1,1.731.248,7.844,7.844,0,0,1,1.28.553q0.548,0.3.95,0.553a1.415,1.415,0,0,0,.725.248,1.039,1.039,0,0,0,.556-0.144,1.194,1.194,0,0,0,.41-0.5Zm2.49,19.756a2.275,2.275,0,0,0,.516.761,2.41,2.41,0,0,0,.781.5,2.521,2.521,0,0,0,.966.184,2.485,2.485,0,0,0,.95-0.184,2.322,2.322,0,0,0,.773-0.5,2.43,2.43,0,0,0,.515-0.761,2.418,2.418,0,0,0,0-1.9,2.4,2.4,0,0,0-.515-0.769A2.444,2.444,0,0,0,326.869,49a2.4,2.4,0,0,0-.95-0.192,2.435,2.435,0,0,0-.966.192,2.54,2.54,0,0,0-.781.513,2.253,2.253,0,0,0-.516.769A2.526,2.526,0,0,0,323.656,52.178Z" transform="translate(-215.75 -30)"/>
</svg>
